<?xml version="1.0" encoding="utf-8"?>
<!-- Generator: Adobe Illustrator 17.1.0, SVG Export Plug-In . SVG Version: 6.00 Build 0)  -->
<!DOCTYPE svg PUBLIC "-//W3C//DTD SVG 1.1//EN" "http://www.w3.org/Graphics/SVG/1.1/DTD/svg11.dtd">
<svg version="1.1" id="Layer_1" xmlns="http://www.w3.org/2000/svg" xmlns:xlink="http://www.w3.org/1999/xlink" x="0px" y="0px"
	 viewBox="0 0 115.3 115.3" enable-background="new 0 0 115.3 115.3" xml:space="preserve">
<g>
	<path fill="#222" d="M32,40.3h52.3c3.2,0,5.9-2.6,5.9-5.9s-2.6-5.9-5.9-5.9H32c-3.2,0-5.9,2.6-5.9,5.9S28.7,40.3,32,40.3z"/>
	<path fill="#222" d="M84.2,53.5H32c-3.2,0-5.9,2.6-5.9,5.9c0,3.2,2.6,5.9,5.9,5.9h52.3c3.2,0,5.9-2.6,5.9-5.9
		C90.1,56.2,87.5,53.5,84.2,53.5z"/>
	<path fill="#222" d="M84.2,76H32c-3.2,0-5.9,2.6-5.9,5.9c0,3.2,2.6,5.9,5.9,5.9h52.3c3.2,0,5.9-2.6,5.9-5.9
		C90.1,78.7,87.5,76,84.2,76z"/>
</g>
</svg>
